<?xml version="1.0" encoding="UTF-8"?>
<svg id="Layer_2" data-name="Layer 2" xmlns="http://www.w3.org/2000/svg" xmlns:xlink="http://www.w3.org/1999/xlink" viewBox="0 0 101.95 66.93">
  <defs>
    <style>
      .cls-1 {
        fill: #0071bc;
      }

      .cls-1, .cls-2, .cls-3, .cls-4, .cls-5, .cls-6 {
        stroke-width: 0px;
      }

      .cls-2 {
        fill: #e6e6e6;
      }

      .cls-3 {
        fill: #00a99d;
      }

      .cls-4 {
        fill: #1a1a1a;
      }

      .cls-5 {
        fill: none;
      }

      .cls-6 {
        fill: #333;
      }

      .cls-7 {
        clip-path: url(#clippath);
      }
    </style>
    <clipPath id="clippath">
      <path class="cls-5" d="m101.95,15.32v6.75c0,3.93-2.3,7.34-5.63,8.94-.86.42-1.88-.01-2.25-.89-2.01-4.75-6.73-8.09-12.22-8.09-5.79,0-10.71,3.7-12.53,8.87-.23.65-.85,1.09-1.55,1.09h-34.32c-.77,0-1.42-.53-1.6-1.28-1.2-4.98-5.68-8.68-11.03-8.68s-9.72,3.62-10.98,8.51c-.23.88-1.09,1.42-1.98,1.23-4.49-.94-7.86-4.92-7.86-9.7v-6.75c0-1.7,1.38-3.08,3.08-3.08h95.79c1.7,0,3.08,1.38,3.08,3.08Z"/>
    </clipPath>
  </defs>
  <g id="Layer_2-2" data-name="Layer 2">
    <g>
      <polyline class="cls-4" points="17.57 22.5 33.63 45.22 41.75 45.22 48.12 37.9 55.87 37.9 65.02 47.41 67.8 47.41 74 24.59 74 21 17.57 20.49"/>
      <path class="cls-4" d="m91.21,35.03l-1.4,15.74c-.37,4.13-3.83,7.3-7.97,7.3h0c-4.15,0-7.61-3.17-7.97-7.3l-1.4-15.74,5.49-14.05h7.77l5.48,14.05Z"/>
      <path class="cls-4" d="m31.21,35.03l-1.4,15.74c-.37,4.13-3.83,7.3-7.97,7.3h0c-4.15,0-7.61-3.17-7.97-7.3l-1.4-15.74,5.49-14.05h7.77l5.48,14.05Z"/>
      <polygon class="cls-2" points="35.22 0 35.22 12.29 29.32 12.29 29.32 7.73 24.66 12.29 20.01 12.29 29.32 3.17 29.32 0 35.22 0"/>
      <polygon class="cls-2" points="91.37 8.02 91.37 10.07 89.49 10.07 89.49 12.29 87.27 12.29 87.27 10.07 83.64 10.07 83.64 12.29 81.42 12.29 81.42 10.07 79.3 10.07 79.3 8.02 91.37 8.02"/>
      <path class="cls-1" d="m40.3,0h3.27v12.29h-8.34v-7.22C35.22,2.27,37.5,0,40.3,0Z"/>
      <polygon class="cls-1" points="77.68 12.29 67.15 12.29 65.4 0 69.13 0 77.68 12.29"/>
      <path class="cls-1" d="m101.95,15.32v6.75c0,3.93-2.3,7.34-5.63,8.94-.86.42-1.88-.01-2.25-.89-2.01-4.75-6.73-8.09-12.22-8.09-5.79,0-10.71,3.7-12.53,8.87-.23.65-.85,1.09-1.55,1.09h-34.32c-.77,0-1.42-.53-1.6-1.28-1.2-4.98-5.68-8.68-11.03-8.68s-9.72,3.62-10.98,8.51c-.23.88-1.09,1.42-1.98,1.23-4.49-.94-7.86-4.92-7.86-9.7v-6.75c0-1.7,1.38-3.08,3.08-3.08h95.79c1.7,0,3.08,1.38,3.08,3.08Z"/>
      <g class="cls-7">
        <path class="cls-3" d="m56.63,24.15c1.35-.31,1.86-.74,2.88-1.68l1.61-1.48-.43-.27c-1.61-1.02-3.55-1.4-5.43-1.07l-1.57.28c-.48.08-1.01.1-1.41-.18-2.3-1.55-10.25-4.67-10.25-4.67,6.51-.66,8.93-1.68,13.19-2.97,1.31-.39,2.64-.66,4.01-.74l1.68-.1,7,2.62c1.21.45,2.55.47,3.77.06l8.1-2.76,21.51-5.04,8.78,2.27,4.06,29.93h-41.9l-12.67-3.89c-1.07-.33-2.02-.96-2.73-1.82,0,0-3.74-1.4-5.88-2.78-2.84-1.84-4.32-3.73-6.81-4.98,0,0,4.2.21,7.63-.1s3.76-.39,4.83-.63Z"/>
        <path class="cls-3" d="m39.59,18.64l5.65,2.15-5.91,1.36c-1.42.33-2.9-.05-3.99-1.02l-4.48-3.99,2.57.16c2.11.13,4.19.58,6.16,1.34Z"/>
      </g>
      <circle class="cls-6" cx="21.75" cy="48.2" r="18.73"/>
      <circle class="cls-6" cx="81.46" cy="48.2" r="18.73"/>
      <circle class="cls-2" cx="81.46" cy="48.2" r="8.37"/>
      <circle class="cls-2" cx="21.84" cy="48.2" r="8.37"/>
    </g>
  </g>
</svg>